# xmcd
#
# Track frame offsets: 
#        150
#        12880
#        33022
#        45975
#        60721
#        75086
#        95727
#        107309
#        126594
#
# Disc length: 2030 seconds
#
# Revision: 0
# Processed by: cddbd v1.5.2PL0 Copyright (c) Steve Scherf et al.
# Submitted via: ExactAudioCopy v0.95a4
#
DISCID=5e07ec09
DTITLE=Richard Buckner  - Surrounded 
DYEAR=2013
DGENRE=Alt. Country
TTITLE0=Surrounded
TTITLE1=When You Tell Me How It Is
TTITLE2=Beautiful Question
TTITLE3=Foundation
TTITLE4=Portrait
TTITLE5=Mood
TTITLE6=Go
TTITLE7=Cut
TTITLE8=Lean To
EXTD=
EXTT0=
EXTT1=
EXTT2=
EXTT3=
EXTT4=
EXTT5=
EXTT6=
EXTT7=
EXTT8=
PLAYORDER=
